<?xml version="1.0" standalone="no"?>
<!DOCTYPE svg PUBLIC "-//W3C//DTD SVG 20010904//EN"
 "http://www.w3.org/TR/2001/REC-SVG-20010904/DTD/svg10.dtd">
<svg version="1.0" xmlns="http://www.w3.org/2000/svg"
 width="80.000000pt" height="80.000000pt" viewBox="0 0 80.000000 80.000000"
 preserveAspectRatio="xMidYMid meet">
<metadata>
Created by potrace 1.14, written by Peter Selinger 2001-2017
</metadata>
<g transform="translate(0.000000,80.000000) scale(0.100000,-0.100000)"
fill="#000000" stroke="none">
<path d="M408 773 c6 -2 18 -2 25 0 6 3 1 5 -13 5 -14 0 -19 -2 -12 -5z"/>
<path d="M500 746 c0 -2 8 -10 18 -17 15 -13 16 -12 3 4 -13 16 -21 21 -21 13z"/>
<path d="M257 695 c-26 -7 -56 -20 -68 -31 -68 -61 -65 -176 5 -232 14 -10 37
-49 52 -85 15 -37 29 -65 31 -63 2 2 -3 21 -12 41 -8 21 -13 40 -11 42 9 10
106 5 119 -5 8 -7 17 -34 21 -61 7 -52 24 -75 53 -69 13 2 21 20 30 73 15 82
34 108 59 83 16 -15 16 -20 0 -58 -9 -24 -15 -44 -13 -46 2 -2 15 23 28 57 14
37 35 69 52 81 82 58 73 189 -15 234 -18 9 -36 22 -40 28 -5 8 -8 7 -8 -1 0
-7 -11 -13 -24 -13 -13 0 -40 -11 -60 -25 l-38 -26 -20 26 c-11 14 -37 34 -57
44 -33 15 -44 16 -84 6z m327 -50 c67 -32 88 -127 41 -183 -50 -60 -128 -66
-179 -15 -19 19 -24 32 -19 47 4 12 7 46 7 76 1 53 2 56 36 72 43 22 72 23
114 3z"/>
<path d="M284 255 c23 -66 60 -155 63 -151 4 4 -56 158 -64 166 -4 3 -3 -4 1
-15z"/>
<path d="M481 189 c-17 -45 -30 -83 -28 -85 2 -2 18 33 36 77 17 45 30 83 28
85 -2 2 -18 -33 -36 -77z"/>
<path d="M350 85 c0 -5 5 -17 10 -25 5 -8 10 -10 10 -5 0 6 -5 17 -10 25 -5 8
-10 11 -10 5z"/>
<path d="M436 75 c-9 -26 -7 -32 5 -12 6 10 9 21 6 23 -2 3 -7 -2 -11 -11z"/>
<path d="M377 28 c6 -10 40 -10 46 0 3 4 -8 7 -23 7 -15 0 -26 -3 -23 -7z"/>
</g>
</svg>
